<?xml version="1.0" encoding="UTF-8"?>
<svg id="Layer_2" xmlns="http://www.w3.org/2000/svg" version="1.1" viewBox="0 0 695.3 188.9">
  <!-- Generator: Adobe Illustrator 29.5.0, SVG Export Plug-In . SVG Version: 2.1.0 Build 137)  -->
  <defs>
    <style>
      .st0 {
        fill: #fff;
      }

      .st1 {
        fill: red;
      }

      .st2 {
        fill: #0e132b;
      }
    </style>
  </defs>
  <g>
    <path class="st2" d="M298.9,102.7h-85.1c-5.8-4.8-11.1-10.4-16.4-15.8-2.3-2.4-3.9-7-8-4.3-2.8,1.8-17.1,15.1-18.3,15.1h-9.6c-.2-1.2.6-1.5,1.3-2.1,3.3-2.9,14.6-7.1,15.8-10.9s-.3-8-.4-11.5-.2-7.3,0-10.5,3.6-14.6,3.1-15.2c-2.1,0-4.5.7-5.4-1.7s-2.6-11.5-2.7-13.5c0-3,2.2-8.3,1.8-9.8s-3-3-3.9-4.2-5.8-12.7-7.1-11.7c-2.6,6.1-6.9,11.9-7.1,18.6l-7.9,1.6c-.1,2.1-1.9,4.9-1.8,6.8,0,3.6,3.7,2.5,0,8.5-4.8,7.8-10.4,11.1-17.2,16.2s-5.9,16.1-8.8,21.5-9.1,11.4-12,14.7c-2.5,2.8-5.1,5.9-8.1,8h-20.4l-.6-1.2c1.3-2,5.6-2.8,5.9-5.3s-3.7-9.9-4.7-10.2c-3-.7-11.5,11.4-13.2,9.9l-.6-7.4-8.7-.6c-.3-1.2.5-1.2,1-1.7,2.4-2.4,6.5-3.3,7.6-6.9l-6.8-.9-1.8-7.2c-1.5,0-2.4,1-3.4,1.8-4,3.4-8.7,10.9-12.7,13.9-1.3,1-5,2.8-4.9,0l19.6-20c3.5-1.9,7.5,3.5,11.2,1.9l23-20.3c2.3-.4,21.4,14.2,25.2,16.3,1.2.7,2.4,1.6,3.9,1.3.5-.4,2.1-8.5,3.7-10.2s7-2.9,9.6-5.2c3.2-2.8,5.4-7.9,6.7-11.9,1.2-3.7,2.5-13,4.2-15.6s3.7-1.2,5.7-1.7c5-1.5,7.1-26.9,17.2-19.4,6.6,4.9,12.8,15.2,19.8,20.5,3.9,5.6,5.7,12.1,9.4,17.8,3.4,5.2,6.7,10.5,13.7,9,3.1-.7,5.4-5.6,9.1-3.9,4.2,3.4,20.2,23,24,23.7s10.1-6.5,13.7-5.2c1.1.4,5.6,4.4,6.9,5.6,11.5,9.9,22,21.1,33.8,30.6l.9,2.5ZM99.6,71.1c-6-4.8-6.4-13.4-8.1-20.4l-20.4,20.1,32.8,17-1.9-13c-8.3,3.8-11.7,0-2.5-3.7ZM231.4,77.3c-3-3.3-6-6.6-9.3-9.6-1.7-1.5-13.1-11.2-14-11.3-1-.1-1.9.8-3.3.2s-6.8-6.5-7.4-5.9l7.7,9.9c5.8.3,8.9,5,13.4,8.3l12.9,8.4ZM106.4,64.3c2.1,2.1,7.1,9.7,9.3,10.9s3.2-1.9,2.2-3.4-9.6-7.4-11.5-7.4ZM264.3,89.1l-9.9-21.4-8.1,4.1,17.9,17.3Z"/>
    <path class="st2" d="M150.3,80.4c1.1,1-5.7,4.6-6.4,5.1-6.1,4.4-14.7,12.6-20.6,15.9-1.9,1.1-10.3,2.5-10.7.4l22.9-18,14.9-3.4Z"/>
  </g>
  <g>
    <path class="st2" d="M48.9,162.8h-21.5l-2.8,9H6.7l20.6-61.5h22.6l20.5,61.5h-18.8l-2.8-9ZM38.2,127.7l-6.5,20.9h12.8l-6.4-20.9Z"/>
    <path class="st2" d="M73.1,171.8v-61.5h15.8v61.5h-15.8Z"/>
    <path class="st2" d="M120.5,172.2c-1.9,0-3.8-.3-5.7-.8s-3.8-1.4-5.7-2.6v19.5h-15.8v-62.9h15.8v3.1c1.9-1.2,3.8-2.1,5.7-2.6s3.8-.8,5.7-.8c3.1,0,6.1.6,8.9,1.8,2.8,1.2,5.2,2.9,7.3,5,2.1,2.1,3.7,4.6,4.9,7.5,1.2,2.9,1.8,6,1.8,9.3s-.6,6.4-1.8,9.3c-1.2,2.8-2.9,5.3-4.9,7.4-2.1,2.1-4.5,3.8-7.3,5-2.8,1.2-5.8,1.8-8.9,1.8ZM118.4,139c-1.3,0-2.6.3-3.7.8-1.2.5-2.2,1.2-3,2.1-.8.9-1.5,1.9-2,3.1-.5,1.2-.8,2.5-.8,3.8s.3,2.6.8,3.8c.5,1.2,1.2,2.2,2,3.1.8.9,1.8,1.6,3,2.1,1.2.5,2.4.8,3.7.8s2.6-.3,3.7-.8c1.2-.5,2.2-1.2,3-2.1.9-.9,1.6-1.9,2.1-3.1.5-1.2.8-2.4.8-3.8s-.3-2.6-.8-3.8c-.5-1.2-1.2-2.2-2.1-3.1-.9-.9-1.9-1.6-3-2.1-1.2-.5-2.4-.8-3.7-.8Z"/>
    <path class="st2" d="M192.7,162.6c-1,1.4-2.1,2.7-3.5,3.9-1.3,1.3-2.9,2.4-4.6,3.3-1.7,1-3.7,1.7-5.8,2.3-2.2.6-4.5.9-7.1.9s-6.9-.6-10-1.8-5.8-2.9-8.1-5.1c-2.3-2.2-4.1-4.7-5.3-7.7-1.3-3-1.9-6.2-1.9-9.8s.6-6.6,1.9-9.6c1.3-3,3.1-5.5,5.3-7.7,2.2-2.2,4.9-3.9,7.9-5.2,3.1-1.3,6.3-1.9,9.8-1.9s6.6.6,9.5,1.8c2.9,1.2,5.3,2.9,7.4,5,2,2.1,3.6,4.7,4.8,7.6,1.1,2.9,1.7,6.1,1.7,9.5v2.2c0,.5,0,1.1,0,1.6,0,.5,0,.9,0,1.1h-32.7c.8,2.2,2.1,3.9,3.9,5.1,1.8,1.3,3.8,1.9,6.1,1.9s4.3-.5,6-1.4c1.7-1,3.1-2.1,4.3-3.5l10.7,7.4ZM170.9,136.7c-2.2,0-4.1.5-5.5,1.6-1.5,1-2.6,2.5-3.4,4.3h17.1c-.8-2.2-2-3.7-3.5-4.6-1.6-.8-3.2-1.3-4.7-1.3Z"/>
    <path class="st2" d="M213.8,129.6c1.4-1.7,3.3-3,5.5-3.9,2.2-.9,4.7-1.3,7.3-1.3s5.1.4,7.4,1.3c2.2.9,4.1,2.2,5.7,3.9,1.6,1.7,2.8,3.7,3.6,6,.8,2.3,1.3,4.8,1.3,7.6v28.6h-15.8v-24.9c0-2.3-.6-4.2-1.8-5.7s-3-2.3-5.3-2.3-3.9.7-5.4,2.2c-1.4,1.5-2.2,3.6-2.2,6.3v24.3h-15.8v-46.5h15.5v4.3Z"/>
    <path class="st2" d="M273.6,173c-8,0-14.2-1.8-18.6-5.3-4.4-3.6-6.8-8.7-7.3-15.4h17.5c0,.9.3,1.7.6,2.6.3.8.8,1.5,1.5,2.2.7.7,1.5,1.2,2.6,1.6,1.1.4,2.5.6,4.1.6s3.9-.3,5.2-1c1.3-.7,1.9-1.7,1.9-3.1s-.9-2.4-2.6-3.1-3.9-1.4-6.5-2.1c-2.5-.6-5.1-1.3-7.8-2.1-2.8-.8-5.3-1.9-7.6-3.4-2.3-1.5-4.3-3.4-5.8-5.8-1.6-2.4-2.3-5.5-2.3-9.4s.6-5.8,1.7-8.3c1.1-2.5,2.7-4.5,4.8-6.3,2.1-1.7,4.6-3.1,7.5-4,3-1,6.2-1.4,9.8-1.4,7.7,0,13.6,1.9,17.9,5.7,4.3,3.8,6.7,9,7.2,15.6h-17.2c0-.8-.2-1.6-.4-2.4-.2-.8-.6-1.6-1.2-2.3-.6-.7-1.4-1.3-2.4-1.7-1-.4-2.4-.7-4.2-.7s-3.7.4-4.7,1.2-1.5,1.7-1.5,2.8.3,1.8.9,2.4c.6.7,1.4,1.2,2.4,1.7,1,.5,2.2.9,3.5,1.2,1.3.3,2.8.7,4.3,1,2.4.5,4.9,1.2,7.5,1.9,2.6.7,5,1.8,7.1,3.1,2.2,1.4,3.9,3.2,5.3,5.5,1.4,2.3,2.1,5.2,2.1,8.9s-.5,5.4-1.6,7.9c-1.1,2.4-2.7,4.5-4.8,6.3-2.2,1.8-4.8,3.2-7.9,4.2s-6.8,1.5-10.9,1.5Z"/>
    <path class="st2" d="M333.5,125.3v14.1h-10.5v13.6c0,1.9.4,3.3,1.2,4.2.8.9,2.1,1.3,3.8,1.3h5.5v13.3h-8.9c-6.2,0-10.6-1.3-13.3-4-2.7-2.7-4.1-6.9-4.1-12.7v-15.7h-6.5v-14.1h6.5v-11.4h15.8v11.4h10.5Z"/>
    <path class="st2" d="M368,168.7c-1.9,1.2-3.8,2.1-5.7,2.6-1.9.5-3.8.8-5.7.8-3.2,0-6.1-.6-8.9-1.8-2.8-1.2-5.2-2.8-7.3-4.9-2.1-2.1-3.7-4.6-4.9-7.5-1.2-2.9-1.8-6-1.8-9.4s.6-6.4,1.8-9.2c1.2-2.9,2.9-5.4,4.9-7.5,2.1-2.1,4.5-3.8,7.3-5,2.8-1.2,5.8-1.8,8.9-1.8s3.8.3,5.7.8,3.8,1.4,5.7,2.6v-3.1h15.8v46.5h-15.8v-3.1ZM358.6,139.1c-1.3,0-2.6.3-3.7.8-1.2.5-2.2,1.2-3.1,2.1-.9.9-1.6,1.9-2.1,3.1-.5,1.2-.8,2.4-.8,3.8s.3,2.6.8,3.8c.5,1.2,1.2,2.2,2.1,3.1.9.9,1.9,1.6,3.1,2.1,1.2.5,2.4.8,3.7.8s2.6-.3,3.7-.8c1.2-.5,2.2-1.2,3-2.1.8-.9,1.5-1.9,2-3.1.5-1.2.8-2.4.8-3.8s-.3-2.6-.8-3.8c-.5-1.2-1.2-2.2-2-3.1-.8-.9-1.8-1.6-3-2.1-1.2-.5-2.4-.8-3.7-.8Z"/>
    <path class="st2" d="M416.4,140.5c-4.7,0-7.9,1-9.8,3.1-1.9,2.1-2.8,4.9-2.8,8.5v19.6h-15.8v-46.5h15.7v5.5c1.4-1.9,3.3-3.4,5.5-4.5,2.2-1.1,4.6-1.6,7.2-1.6v15.8Z"/>
    <path class="st2" d="M448.5,125.3h18.7l-16.9,23.2,17.1,23.2h-19.5l-12.1-17.9v17.9h-15.9v-61.5h15.9v34.5l12.7-19.6Z"/>
  </g>
  <g>
    <path class="st2" d="M551.9,125.3h16c8.8,0,13.7,5.4,13.7,12s-2.2,8.2-6.2,10.2c6.2,1.1,9.4,5.6,9.4,10.9,0,7.6-5.6,13.4-13.4,13.4h-19.5v-46.4ZM555.5,128.7v17.8h12.3c6.9,0,10.2-4.1,10.2-8.9s-3.4-8.9-9.9-8.9h-12.6ZM555.5,149.8v18.7h15.4c7.1,0,10.3-4.5,10.3-9.8s-3.3-9-10-9h-15.7Z"/>
    <path class="st2" d="M621,165.1c-2.8,4.3-7.7,7.2-14.2,7.2-9.8,0-17.3-7.6-17.3-17.5s7.5-17.4,17.3-17.4,11.3,2.9,14.2,7v-6.4h3.3v33.9h-3.3v-6.7ZM592.8,154.8c0,8,6,14.2,14.2,14.2s14.2-6.2,14.2-14.2-6.2-14.3-14.2-14.3-14.2,6.2-14.2,14.3Z"/>
    <path class="st2" d="M657.5,151v20.7h-3.3v-20.3c0-6.8-3.7-10.9-10.2-10.9s-11,4.5-11,11.9v19.4h-3.3v-33.9h3.3v5.2c2-3.1,5.4-5.7,11.3-5.7s13.2,5.4,13.2,13.7Z"/>
    <path class="st2" d="M681.5,137.9h4.1l-15.8,17,18.8,16.9h-4.7l-17.6-15.9v15.9h-3.3v-46.4h3.3v29.1l15.3-16.5Z"/>
  </g>
  <g>
    <rect class="st1" x="484.6" y="125.3" width="46.4" height="46.4"/>
    <rect class="st0" x="503.1" y="134.8" width="9.4" height="27.5"/>
    <rect class="st0" x="503.1" y="134.8" width="9.4" height="27.5" transform="translate(656.4 -359.3) rotate(90)"/>
  </g>
</svg>