<?xml version="1.0" encoding="UTF-8"?>
<svg id="Layer_9" xmlns="http://www.w3.org/2000/svg" version="1.1" viewBox="0 0 24 24">
  <!-- Generator: Adobe Illustrator 29.5.0, SVG Export Plug-In . SVG Version: 2.1.0 Build 137)  -->
  <defs>
    <style>
      .st0 {
        fill: #757575;
      }
    </style>
  </defs>
  <path class="st0" d="M14.9,3.7c.7,0,1.2-.5,1.2-1.2s-.5-1.2-1.2-1.2h-1.2c0-.7-.5-1.2-1.2-1.2s-1.2.5-1.2,1.2c-1.3,0-2.4,1.1-2.4,2.4v1.2c0,1.3,1.1,2.4,2.4,2.4h2.4v1.2h-3.5c-.7,0-1.2.5-1.2,1.2s.5,1.2,1.2,1.2h1.2c0,.7.5,1.2,1.2,1.2s1.2-.5,1.2-1.2c1.3,0,2.4-1.1,2.4-2.4v-1.2c0-1.3-1.1-2.4-2.4-2.4h-2.4v-1.2h3.5Z"/>
  <path class="st0" d="M23.1,13.3c-.5-.6-1.3-.9-2.2-.9s-1.6.2-2.3.7l-2.9,2.1c-.5-1.1-1.5-1.8-2.8-1.8H4c0-1.1-.9-2-2-2H1C.4,11.4,0,11.8,0,12.4s.4,1,1,1h1v9H1C.4,22.4,0,22.8,0,23.4s.4,1,1,1h1c1,0,1.9-.8,2-1.8l8.8,1.8c0,0,.1,0,.2,0,.2,0,.4,0,.6-.2l9.2-6.4c.8-.5,1.3-1.5,1.3-2.4s-.3-1.5-.9-2.1h0ZM21.6,16.2l-8.8,6.2-8.8-1.8v-5.2h9c.5,0,1,.5,1,1s-.5,1-1,1h-5c-.6,0-1,.5-1,1s.4,1,1,1h5c.8,0,1.6-.3,2.1-.9.2-.2.4-.5.6-.8l4.1-3c.3-.2.7-.4,1.2-.4s.5.1.7.3c.2.2.3.4.3.7s-.1.6-.4.8h0Z"/>
</svg>