
      <svg width="40" height="40" viewBox="0 0 40 40" fill="none" xmlns="http://www.w3.org/2000/svg">
        <circle fill="#000000" cx="20" cy="20" r="20"></circle>
        <g transform="translate(4,4)">
          <circle cx="16" cy="16" r="14" fill="#ffffff" />
          <svg width="32" height="32" viewBox="0 0 32 32" fill="none" xmlns="http://www.w3.org/2000/svg">
<path d="M0 16C0 7.16344 7.16344 0 16 0C24.8366 0 32 7.16344 32 16C32 24.8366 24.8366 32 16 32C7.16344 32 0 24.8366 0 16Z" fill="black"/>
<path d="M25.897 21.1917L22.5954 24.7549C22.5236 24.8323 22.4368 24.894 22.3403 24.9361C22.2438 24.9783 22.1397 25.0001 22.0345 25H6.38329C6.30861 25 6.23556 24.978 6.17311 24.9368C6.11066 24.8956 6.06153 24.837 6.03177 24.768C6.002 24.6991 5.99289 24.6229 6.00555 24.5489C6.01822 24.4748 6.05211 24.4061 6.10305 24.3511L9.40715 20.788C9.47873 20.7108 9.56529 20.6492 9.66147 20.6071C9.75766 20.5649 9.86143 20.543 9.96636 20.5429H25.6167C25.6914 20.5429 25.7644 20.5648 25.8269 20.606C25.8893 20.6472 25.9384 20.7059 25.9683 20.7748C25.998 20.8438 26.0071 20.9199 25.9945 20.994C25.9818 21.068 25.9479 21.1368 25.897 21.1917ZM22.5954 14.0166C22.5236 13.9392 22.4368 13.8775 22.3403 13.8353C22.2438 13.7931 22.1397 13.7714 22.0345 13.7714H6.38329C6.30861 13.7714 6.23556 13.7934 6.17311 13.8346C6.11066 13.8758 6.06153 13.9345 6.03177 14.0034C6.002 14.0723 5.99289 14.1485 6.00555 14.2226C6.01822 14.2966 6.05211 14.3653 6.10305 14.4203L9.40715 17.9834C9.47873 18.0606 9.56529 18.1222 9.66147 18.1644C9.75766 18.2065 9.86143 18.2284 9.96636 18.2286H25.6167C25.6914 18.2286 25.7644 18.2066 25.8269 18.1654C25.8893 18.1242 25.9384 18.0655 25.9683 17.9966C25.998 17.9277 26.0071 17.8515 25.9945 17.7774C25.9818 17.7034 25.9479 17.6347 25.897 17.5797L22.5954 14.0166ZM6.38329 11.4571H22.0345C22.1397 11.4572 22.2438 11.4355 22.3403 11.3933C22.4368 11.3511 22.5236 11.2894 22.5954 11.212L25.897 7.64886C25.9479 7.59391 25.9818 7.52519 25.9945 7.45112C26.0071 7.37706 25.998 7.30089 25.9683 7.23197C25.9384 7.16305 25.8893 7.10438 25.8269 7.06317C25.7644 7.02196 25.6914 7 25.6167 7H9.96636C9.86143 7.00018 9.75766 7.02203 9.66147 7.0642C9.56529 7.10636 9.47873 7.16795 9.40715 7.24514L6.10391 10.8083C6.05301 10.8632 6.01913 10.9318 6.00644 11.0058C5.99375 11.0798 6.00278 11.1559 6.03245 11.2248C6.06211 11.2937 6.11111 11.3523 6.17343 11.3936C6.23575 11.4349 6.30869 11.457 6.38329 11.4571Z" fill="url(#paint0_linear_1818_298)"/>
<defs>
<linearGradient id="paint0_linear_1818_298" x1="7.68823" y1="25.429" x2="24.2165" y2="6.91338" gradientUnits="userSpaceOnUse">
<stop offset="0.08" stop-color="#9945FF"/>
<stop offset="0.3" stop-color="#8752F3"/>
<stop offset="0.5" stop-color="#5497D5"/>
<stop offset="0.6" stop-color="#43B4CA"/>
<stop offset="0.72" stop-color="#28E0B9"/>
<stop offset="0.97" stop-color="#19FB9B"/>
</linearGradient>
</defs>
</svg>

        </g>
      </svg>